<?xml version="1.0" encoding="utf-8"?>
<svg viewBox="713.722 30.07 832.609 832.61" width="832.609" height="832.61" xmlns="http://www.w3.org/2000/svg">
  <g id="D" transform="matrix(1, 0, 0, 1, 713.721741, 30.069736)">
    <polygon class="cls-2" points="317.13 515.48 317.13 477.9 317.13 343.55 251.13 343.55 251.13 477.9 251.13 515.48 251.13 581.48 251.13 604.04 251.13 614.63 317.13 614.63 317.13 581.48 317.13 515.48" style="fill: rgb(36, 145, 234);"/>
    <path class="cls-2" d="M706.47,117.79C627.33,40.79,519.8,0,409.38,0H317.13a66,66,0,0,0-66,66h0v59.56h0v99.14h66V74.87A8.87,8.87,0,0,1,326,66h83.71c92.44,0,182.68,33.61,249.3,97.7C727.8,229.87,766,319,766.6,414.07,767.8,608,603.29,766.61,409.38,766.61H326a8.87,8.87,0,0,1-8.87-8.87V733.47h-66v33.14h0a66,66,0,0,0,66,66h92.22c229.51,0,421.1-182.8,423.24-412.3C833.66,305.65,788.72,197.8,706.47,117.79Z" style="fill: rgb(36, 145, 234);"/>
    <path class="cls-3" d="M125.56,317.13V489.05h66V200.44a8.89,8.89,0,0,1,8.88-8.88h24.27v-66H191.56a66,66,0,0,0-66,66h0V317.13Z" style="fill: rgb(255, 45, 85);"/>
    <path class="cls-3" d="M317.13,707.05H410.5c162.68,0,299.27-133.13,296.5-295.78-2.7-158-132.07-285.71-290.7-285.71H343.55v66h67.64c125.72,0,231.93,102.88,229.82,228.58C639,542.29,538.94,641,416.3,641.05H200.44a8.89,8.89,0,0,1-8.88-8.88V607.9h-66v33.15h0a66,66,0,0,0,66,66H317.13Z" style="fill: rgb(255, 45, 85);"/>
    <path class="cls-4" d="M218,317.13H416.3a99.17,99.17,0,0,1,0,198.34H343.55v66H416.3c91.08,0,165.17-74.09,165.17-165.17S507.38,251.13,416.3,251.13H218Z" style="fill: rgb(38, 184, 188);"/>
    <path class="cls-4" d="M191.56,581.47h33.15v-66H74.87A8.87,8.87,0,0,1,66,506.6V326a8.87,8.87,0,0,1,8.87-8.87H99.14v-66H66a66,66,0,0,0-66,66V515.47a66,66,0,0,0,66,66H191.56Z" style="fill: rgb(38, 184, 188);"/>
    <polygon class="cls-5" points="251.13 251.13 317.13 251.13 317.13 226 317.13 224.71 251.13 224.71 251.13 232.97 251.13 251.13" style="fill: rgb(17, 105, 165);"/>
    <rect class="cls-5" x="251.13" y="317.13" width="66" height="26.42" style="fill: rgb(17, 105, 165);"/>
    <polygon class="cls-5" points="317.13 614.63 251.13 614.63 251.13 641.05 317.13 641.05 317.13 615.77 317.13 614.63" style="fill: rgb(17, 105, 165);"/>
    <rect class="cls-5" x="251.13" y="707.05" width="66" height="26.42" style="fill: rgb(17, 105, 165);"/>
    <rect class="cls-6" x="317.13" y="125.56" width="26.42" height="66" style="fill: rgb(188, 13, 55);"/>
    <rect class="cls-6" x="224.71" y="125.57" width="26.42" height="66" style="fill: rgb(188, 13, 55);"/>
    <rect class="cls-6" x="125.56" y="489.05" width="66" height="26.42" style="fill: rgb(188, 13, 55);"/>
    <rect class="cls-6" x="125.56" y="581.47" width="66" height="26.42" style="fill: rgb(188, 13, 55);"/>
    <polygon class="cls-7" points="217.98 251.13 208.04 251.13 191.56 251.13 191.56 317.13 217.98 317.13 217.98 251.13" style="fill: rgb(17, 130, 130);"/>
    <rect class="cls-7" x="99.14" y="251.13" width="26.42" height="66" style="fill: rgb(17, 130, 130);"/>
    <rect class="cls-7" x="317.13" y="515.47" width="26.42" height="66" style="fill: rgb(17, 130, 130);"/>
    <rect class="cls-7" x="224.71" y="515.47" width="26.42" height="66" style="fill: rgb(17, 130, 130);"/>
  </g>
</svg>