<?xml version="1.0" standalone="no"?>
<!DOCTYPE svg PUBLIC "-//W3C//DTD SVG 20010904//EN"
 "http://www.w3.org/TR/2001/REC-SVG-20010904/DTD/svg10.dtd">
<svg version="1.0" xmlns="http://www.w3.org/2000/svg"
 width="700.000000pt" height="700.000000pt" viewBox="0 0 700.000000 700.000000"
 preserveAspectRatio="xMidYMid meet">
<metadata>
Created by potrace 1.14, written by Peter Selinger 2001-2017
</metadata>
<g transform="translate(0.000000,700.000000) scale(0.100000,-0.100000)"
fill="#000000" stroke="none">
<path d="M2540 6985 c-172 -43 -306 -155 -379 -316 -47 -104 -49 -122 -50
-464 l-1 -260 -282 -1 c-315 0 -349 -5 -468 -62 -140 -68 -254 -213 -291 -372
-8 -37 -13 -145 -13 -337 l-1 -283 -265 -1 c-302 -1 -321 -2 -409 -30 -163
-52 -290 -180 -356 -359 -19 -54 -20 -79 -22 -975 -3 -1030 -6 -988 68 -1125
55 -101 137 -179 243 -230 44 -21 99 -42 121 -45 22 -4 49 -8 60 -10 11 -2
142 -4 290 -4 l270 -1 0 -273 c0 -185 4 -293 13 -337 32 -159 148 -311 293
-382 113 -57 167 -64 477 -63 l272 0 1 -255 c0 -299 3 -341 25 -406 65 -196
218 -337 410 -379 58 -13 158 -14 634 -11 311 2 575 6 587 9 12 3 50 8 85 11
35 4 72 8 83 10 11 2 41 6 66 10 131 19 343 69 497 116 650 199 1234 585 1685
1112 52 60 202 262 252 338 117 179 244 423 321 615 45 115 128 373 149 465
18 82 57 292 66 360 6 47 13 99 15 115 8 63 11 534 3 617 -8 86 -18 175 -24
213 -2 11 -6 45 -10 75 -4 30 -9 58 -11 61 -2 4 -6 24 -10 45 -19 125 -107
431 -169 589 -299 763 -850 1394 -1560 1788 -312 172 -661 298 -1061 382 -40
9 -230 36 -284 41 -30 3 -66 8 -80 11 -14 3 -286 7 -605 9 -469 2 -591 0 -635
-11z m1153 -549 c54 -4 108 -9 119 -11 12 -3 44 -7 72 -10 90 -10 334 -64 459
-101 383 -114 759 -314 1058 -564 90 -75 291 -279 371 -376 178 -216 338 -479
438 -719 23 -55 45 -109 50 -120 41 -97 109 -343 136 -495 2 -14 6 -34 9 -45
2 -11 7 -43 10 -71 3 -28 7 -60 10 -72 14 -75 23 -392 15 -522 -53 -818 -456
-1583 -1110 -2106 -427 -341 -955 -571 -1467 -638 -89 -12 -120 -16 -183 -22
-102 -11 -953 -12 -973 -2 -32 16 -43 61 -41 172 1 76 -1 104 -10 99 -8 -5 -8
-3 0 8 7 8 11 52 10 107 0 52 1 97 4 101 3 4 199 7 435 7 378 0 586 6 651 18
10 2 42 7 69 10 28 4 82 14 120 22 39 8 81 17 95 20 47 9 195 55 290 91 703
265 1262 840 1491 1535 38 117 81 288 94 383 4 28 9 58 11 68 26 145 19 558
-11 667 -2 8 -7 35 -10 60 -10 76 -56 249 -97 369 -153 444 -434 834 -818
1137 -241 190 -558 346 -870 428 -274 72 -390 81 -997 81 -395 0 -452 2 -455
15 -2 8 -3 107 -2 220 1 214 6 244 45 258 25 10 850 7 982 -2z m-1583 -1296
l0 -250 -250 0 -250 0 0 225 0 226 25 24 24 25 226 0 225 0 0 -250z m1575 235
c156 -20 302 -53 405 -92 8 -3 20 -7 25 -8 6 -2 55 -22 110 -46 430 -185 787
-528 988 -950 44 -93 121 -313 131 -374 2 -16 9 -55 15 -85 5 -30 13 -71 16
-90 4 -19 8 -109 10 -200 3 -167 -8 -284 -39 -430 -149 -688 -677 -1242 -1358
-1424 -214 -57 -311 -65 -848 -63 l-474 2 -1 248 0 247 110 0 c495 -1 915 9
985 24 437 93 785 359 980 746 104 208 145 384 145 630 0 222 -45 412 -145
611 -108 215 -273 402 -475 536 -123 82 -340 178 -447 196 -12 3 -43 8 -68 12
-25 4 -54 10 -65 13 -11 3 -243 7 -515 9 -272 3 -497 7 -499 9 -3 3 -5 115 -6
250 l0 244 455 -1 c319 0 488 -5 565 -14z m-1708 -1041 l133 1 0 -835 0 -835
-250 0 -250 0 2 835 3 835 108 -2 c78 -1 107 1 107 10 0 8 3 9 8 1 4 -6 57
-10 139 -10z m-927 -3 c3 -1 5 -376 5 -833 l0 -833 -221 0 c-193 1 -224 3
-248 18 -14 10 -27 23 -27 30 -1 6 -2 363 -3 791 -1 869 -6 813 69 825 29 5
399 6 425 2z m2562 -4 c229 -40 405 -140 542 -311 68 -85 142 -241 161 -341 3
-16 8 -41 10 -55 9 -44 6 -193 -4 -261 -34 -208 -160 -409 -338 -538 -54 -39
-164 -94 -228 -115 -47 -14 -61 -18 -145 -32 -62 -11 -940 -10 -941 1 -1 6 -2
381 -3 835 l-1 825 455 -1 c250 -1 472 -4 492 -7z m-1502 -2467 l0 -250 -225
0 -226 0 -24 25 -25 24 0 226 0 225 250 0 250 0 0 -250z"/>
</g>
</svg>
