<svg class="icon icon--logo" xmlns="http://www.w3.org/2000/svg" viewBox="0 0 2444.34 832.61">
  <defs>
    <style>.cls-1{fill:#fff;}.cls-2{fill:#2491ea;}.cls-3{fill:#ff2d55;}.cls-4{fill:#26b8bc;}.cls-5{fill:#1169a5;}.cls-6{fill:#bc0d37;}.cls-7{fill:#118282;}</style>
  </defs>
  <g id="Layer_2" data-name="Layer 2">
    <g id="design">
      <g id="Druim">
        <path class="cls-1" d="M978.44,253.69h148.32q53.17,0,94,20.29t63.43,57.14q22.6,36.84,22.61,85.81t-22.61,85.82q-22.64,36.84-63.43,57.13t-94,20.29H978.44ZM1123,518.14q49,0,78.12-27.28t29.14-73.93q0-46.64-29.14-73.92T1123,315.73h-69V518.14Z"></path>
        <path class="cls-1" d="M1463.27,334.85q22.14-9.33,51.06-9.33v67.16c-8.08-.62-13.51-.93-16.32-.93q-31.26,0-49,17.49t-17.72,52.47V580.17h-72.76V329.25h69.49v33.11Q1441.12,344.18,1463.27,334.85Z"></path>
        <path class="cls-1" d="M1812.37,329.25V580.17h-69V550.33a96.55,96.55,0,0,1-34.51,24.94,108.66,108.66,0,0,1-43.38,8.63q-49.44,0-78.35-28.44T1558.18,471V329.25h72.75V460.31q0,60.63,50.84,60.63,26.13,0,42-17t15.86-50.61V329.25Z"></path>
        <path class="cls-1" d="M1883.73,282.61a39.49,39.49,0,0,1,0-57.84q12.58-11.64,32.65-11.65T1949,224.31a35.87,35.87,0,0,1,12.59,28q0,18.18-12.59,30.08t-32.64,11.89Q1896.31,294.27,1883.73,282.61ZM1880,329.25h72.75V580.17H1880Z"></path>
        <path class="cls-1" d="M2416.59,353.27q27.75,27.75,27.75,83.25V580.17h-72.76V447.72q0-29.85-12.36-44.54T2324,388.48q-25.66,0-40.58,16.56t-14.93,49.2V580.17h-72.75V447.72q0-59.24-47.58-59.24-25.18,0-40.1,16.56t-14.93,49.2V580.17h-72.75V329.25h69.48v28.92a92,92,0,0,1,34.29-24.26,115.44,115.44,0,0,1,44.54-8.39q26.58,0,48,10.49a85.14,85.14,0,0,1,34.51,30.55,103,103,0,0,1,38.94-30.32q23.57-10.71,51.54-10.72Q2388.83,325.52,2416.59,353.27Z"></path>
      </g>
      <g id="D">
        <polygon class="cls-2" points="317.13 515.48 317.13 477.9 317.13 343.55 251.13 343.55 251.13 477.9 251.13 515.48 251.13 581.48 251.13 604.04 251.13 614.63 317.13 614.63 317.13 581.48 317.13 515.48"></polygon>
        <path class="cls-2" d="M706.47,117.79C627.33,40.79,519.8,0,409.38,0H317.13a66,66,0,0,0-66,66h0v59.56h0v99.14h66V74.87A8.87,8.87,0,0,1,326,66h83.71c92.44,0,182.68,33.61,249.3,97.7C727.8,229.87,766,319,766.6,414.07,767.8,608,603.29,766.61,409.38,766.61H326a8.87,8.87,0,0,1-8.87-8.87V733.47h-66v33.14h0a66,66,0,0,0,66,66h92.22c229.51,0,421.1-182.8,423.24-412.3C833.66,305.65,788.72,197.8,706.47,117.79Z"></path>
        <path class="cls-3" d="M125.56,317.13V489.05h66V200.44a8.89,8.89,0,0,1,8.88-8.88h24.27v-66H191.56a66,66,0,0,0-66,66h0V317.13Z"></path>
        <path class="cls-3" d="M317.13,707.05H410.5c162.68,0,299.27-133.13,296.5-295.78-2.7-158-132.07-285.71-290.7-285.71H343.55v66h67.64c125.72,0,231.93,102.88,229.82,228.58C639,542.29,538.94,641,416.3,641.05H200.44a8.89,8.89,0,0,1-8.88-8.88V607.9h-66v33.15h0a66,66,0,0,0,66,66H317.13Z"></path>
        <path class="cls-4" d="M218,317.13H416.3a99.17,99.17,0,0,1,0,198.34H343.55v66H416.3c91.08,0,165.17-74.09,165.17-165.17S507.38,251.13,416.3,251.13H218Z"></path>
        <path class="cls-4" d="M191.56,581.47h33.15v-66H74.87A8.87,8.87,0,0,1,66,506.6V326a8.87,8.87,0,0,1,8.87-8.87H99.14v-66H66a66,66,0,0,0-66,66V515.47a66,66,0,0,0,66,66H191.56Z"></path>
        <polygon class="cls-5" points="251.13 251.13 317.13 251.13 317.13 226 317.13 224.71 251.13 224.71 251.13 232.97 251.13 251.13"></polygon>
        <rect class="cls-5" x="251.13" y="317.13" width="66" height="26.42"></rect>
        <polygon class="cls-5" points="317.13 614.63 251.13 614.63 251.13 641.05 317.13 641.05 317.13 615.77 317.13 614.63"></polygon>
        <rect class="cls-5" x="251.13" y="707.05" width="66" height="26.42"></rect>
        <rect class="cls-6" x="317.13" y="125.56" width="26.42" height="66"></rect>
        <rect class="cls-6" x="224.71" y="125.57" width="26.42" height="66"></rect>
        <rect class="cls-6" x="125.56" y="489.05" width="66" height="26.42"></rect>
        <rect class="cls-6" x="125.56" y="581.47" width="66" height="26.42"></rect>
        <polygon class="cls-7" points="217.98 251.13 208.04 251.13 191.56 251.13 191.56 317.13 217.98 317.13 217.98 251.13"></polygon>
        <rect class="cls-7" x="99.14" y="251.13" width="26.42" height="66"></rect>
        <rect class="cls-7" x="317.13" y="515.47" width="26.42" height="66"></rect>
        <rect class="cls-7" x="224.71" y="515.47" width="26.42" height="66"></rect>
      </g>
    </g>
  </g>
</svg>